<svg viewBox="0 0 64 64" xmlns="http://www.w3.org/2000/svg" fill="none">
  <rect width="100%" height="100%" fill="white" rx="12"/>
  <rect x="4" y="4" width="56" height="56" rx="8" fill="url(#gradient)" />
  <defs>
    <linearGradient id="gradient" x1="0%" y1="0%" x2="100%" y2="100%">
      <stop offset="0%" style="stop-color:#FFC107;stop-opacity:1" />
      <stop offset="100%" style="stop-color:#FF9800;stop-opacity:1" />
    </linearGradient>
  </defs>
  <path d="M20 24H44a3 3 0 0 1 3 3v14a3 3 0 0 1-3 3H20a3 3 0 0 1-3-3V27a3 3 0 0 1 3-3z" fill="white" stroke="#FFC107" stroke-width="2" rx="3"/>
  <polygon points="20,23 32,32 44,23 32,33" fill="#FFC107"/>
  <path d="M20 30H16a1 1 0 0 0-1 1v8a1 1 0 0 0 1 1h4a1 1 0 0 0 1-1v-8a1 1 0 0 0-1-1z" fill="#FFC107"/>
  <path d="M32 35C24 35 18 41 18 49h28c0-8-6-14-14-14z" fill="#FF9800"/>
  <path d="M56 12H8c-1.1 0-2 .9-2 2v36c0 1.1.9 2 2 2h48c1.1 0 2-.9 2-2V14c0-1.1-.9-2-2-2zm-9 5l-20 12L9 17h38zm-1 33H10V20h36v25z" fill="#FFC107"/>
</svg>