<svg viewBox="0 0 64 64" xmlns="http://www.w3.org/2000/svg" stroke="gold" fill="none" stroke-width="2.5" stroke-linecap="round" stroke-linejoin="round">
    <path d="M42 32a8 8 0 1 0-15.9 0 8 8 0 0 0-1 15.9H25a6 6 0 0 0-6 6 6 6 0 0 0 6 6h22a6 6 0 0 0 6-6 6 6 0 0 0-6-6h-1.1A8.1 8.1 0 0 0 42 32z" />
    <path d="M38 25a10 10 0 1 0-16 8 10 10 0 0 0-4 2 10 10 0 0 0 0 20h24a10 10 0 0 0 0-20 10 10 0 0 0-4-2 10 10 0 0 0 1.55-8z" />
    <path d="M25 32a5 5 0 0 1 2.5-4.2A9.5 9.5 0 0 0 29 28a5 5 0 0 1 0 10H25z" />
</svg>