<svg xmlns="http://www.w3.org/2000/svg" viewBox="0 0 64 64" fill="none" stroke="none">
  <defs>
    <linearGradient id="goldGradient" x1="0%" y1="0%" x2="100%" y2="100%">
      <stop offset="0%" style="stop-color:#FFD700; stop-opacity:1" />
      <stop offset="100%" style="stop-color:#FFB300; stop-opacity:1" />
    </linearGradient>
  </defs>
  <g transform="translate(0, 2)">
    <path d="M32 4C15.4 4 2 17.4 2 34c0 16.6 13.4 30 30 30s30-13.4 30-30C62 17.4 48.6 4 32 4zm0 54C17.5 58 6 46.5 6 32S17.5 6 32 6s26 11.5 26 26-11.5 26-26 26z" fill="url(#goldGradient)" />
    <g>
      <path d="M43 30h-6v6a1 1 0 01-2 0v-6h-8v6a1 1 0 01-2 0v-6h-6a1 1 0 010-2h6v-6a1 1 0 012 0v6h8v-6a1 1 0 012 0v6h6a1 1 0 010 2z" fill="#fff"/>
      <path d="M20 43h24c1.1 0 2 .9 2 2s-.9 2-2 2H20c-1.1 0-2-.9-2-2s.9-2 2-2z" fill="#fff"/>
      <circle cx="32" cy="32" r="26" stroke="#FFD700" stroke-width="2" />
    </g>
  </g>
</svg>